<mxfile host="app.diagrams.net" modified="2022-11-17T08:04:50.752Z" agent="5.0 (Windows NT 10.0; Win64; x64) AppleWebKit/537.36 (KHTML, like Gecko) Chrome/102.0.5005.63 Safari/537.36 Edg/102.0.1245.33" etag="RFf5HxUS9w65PTxKzLeJ" version="20.3.6" type="github">
  <diagram id="urSJdIR2Tf46Iqk3_nOT" name="第 1 页">
    <mxGraphModel dx="1038" dy="1725" grid="1" gridSize="10" guides="1" tooltips="1" connect="1" arrows="1" fold="1" page="1" pageScale="1" pageWidth="827" pageHeight="1169" math="0" shadow="0">
      <root>
        <mxCell id="0" />
        <mxCell id="1" parent="0" />
        <mxCell id="3qrp_uGkJdftNhMHwffZ-61" value="" style="rounded=0;whiteSpace=wrap;html=1;fillColor=#dae8fc;strokeColor=#6c8ebf;" vertex="1" parent="1">
          <mxGeometry x="50" y="270" width="850" height="290" as="geometry" />
        </mxCell>
        <mxCell id="3qrp_uGkJdftNhMHwffZ-59" value="" style="rounded=0;whiteSpace=wrap;html=1;fillColor=#f5f5f5;fontColor=#333333;strokeColor=#666666;" vertex="1" parent="1">
          <mxGeometry x="50" y="-220" width="850" height="470" as="geometry" />
        </mxCell>
        <mxCell id="3qrp_uGkJdftNhMHwffZ-10" style="edgeStyle=orthogonalEdgeStyle;rounded=0;orthogonalLoop=1;jettySize=auto;html=1;entryX=0.5;entryY=0;entryDx=0;entryDy=0;" edge="1" parent="1" source="3qrp_uGkJdftNhMHwffZ-9" target="3qrp_uGkJdftNhMHwffZ-11">
          <mxGeometry relative="1" as="geometry">
            <mxPoint x="165" y="260" as="targetPoint" />
          </mxGeometry>
        </mxCell>
        <mxCell id="3qrp_uGkJdftNhMHwffZ-20" value="" style="edgeStyle=orthogonalEdgeStyle;rounded=0;orthogonalLoop=1;jettySize=auto;html=1;endArrow=none;endFill=0;" edge="1" parent="1" source="3qrp_uGkJdftNhMHwffZ-9" target="3qrp_uGkJdftNhMHwffZ-19">
          <mxGeometry relative="1" as="geometry" />
        </mxCell>
        <mxCell id="3qrp_uGkJdftNhMHwffZ-38" style="edgeStyle=orthogonalEdgeStyle;rounded=0;orthogonalLoop=1;jettySize=auto;html=1;entryX=0.5;entryY=1;entryDx=0;entryDy=0;endArrow=classic;endFill=1;" edge="1" parent="1" source="3qrp_uGkJdftNhMHwffZ-9" target="3qrp_uGkJdftNhMHwffZ-37">
          <mxGeometry relative="1" as="geometry" />
        </mxCell>
        <mxCell id="3qrp_uGkJdftNhMHwffZ-9" value="创建可视化建模任务" style="html=1;fillColor=#6d8764;fontColor=#ffffff;strokeColor=#3A5431;" vertex="1" parent="1">
          <mxGeometry x="102.5" y="175" width="125" height="50" as="geometry" />
        </mxCell>
        <mxCell id="3qrp_uGkJdftNhMHwffZ-23" style="edgeStyle=orthogonalEdgeStyle;rounded=0;orthogonalLoop=1;jettySize=auto;html=1;entryX=0;entryY=0.5;entryDx=0;entryDy=0;endArrow=none;endFill=0;" edge="1" parent="1" source="3qrp_uGkJdftNhMHwffZ-11" target="3qrp_uGkJdftNhMHwffZ-22">
          <mxGeometry relative="1" as="geometry" />
        </mxCell>
        <mxCell id="3qrp_uGkJdftNhMHwffZ-11" value="创建数据同步任务" style="html=1;fillColor=#6d8764;fontColor=#ffffff;strokeColor=#3A5431;" vertex="1" parent="1">
          <mxGeometry x="102.5" y="310" width="125" height="50" as="geometry" />
        </mxCell>
        <mxCell id="3qrp_uGkJdftNhMHwffZ-18" style="edgeStyle=orthogonalEdgeStyle;rounded=0;orthogonalLoop=1;jettySize=auto;html=1;" edge="1" parent="1" source="3qrp_uGkJdftNhMHwffZ-14" target="3qrp_uGkJdftNhMHwffZ-17">
          <mxGeometry relative="1" as="geometry" />
        </mxCell>
        <mxCell id="3qrp_uGkJdftNhMHwffZ-26" value="" style="edgeStyle=orthogonalEdgeStyle;rounded=0;orthogonalLoop=1;jettySize=auto;html=1;endArrow=none;endFill=0;" edge="1" parent="1" source="3qrp_uGkJdftNhMHwffZ-14" target="3qrp_uGkJdftNhMHwffZ-25">
          <mxGeometry relative="1" as="geometry" />
        </mxCell>
        <mxCell id="3qrp_uGkJdftNhMHwffZ-14" value="创建部署任务" style="html=1;fillColor=#647687;fontColor=#ffffff;strokeColor=#314354;" vertex="1" parent="1">
          <mxGeometry x="730" y="180" width="115" height="50" as="geometry" />
        </mxCell>
        <mxCell id="3qrp_uGkJdftNhMHwffZ-28" value="" style="edgeStyle=orthogonalEdgeStyle;rounded=0;orthogonalLoop=1;jettySize=auto;html=1;endArrow=none;endFill=0;" edge="1" parent="1" source="3qrp_uGkJdftNhMHwffZ-17" target="3qrp_uGkJdftNhMHwffZ-27">
          <mxGeometry relative="1" as="geometry" />
        </mxCell>
        <mxCell id="3qrp_uGkJdftNhMHwffZ-32" style="edgeStyle=orthogonalEdgeStyle;rounded=0;orthogonalLoop=1;jettySize=auto;html=1;entryX=0.5;entryY=0;entryDx=0;entryDy=0;" edge="1" parent="1" source="3qrp_uGkJdftNhMHwffZ-17" target="3qrp_uGkJdftNhMHwffZ-29">
          <mxGeometry relative="1" as="geometry" />
        </mxCell>
        <mxCell id="3qrp_uGkJdftNhMHwffZ-17" value="创建数据同步任务" style="html=1;fillColor=#647687;fontColor=#ffffff;strokeColor=#314354;" vertex="1" parent="1">
          <mxGeometry x="730" y="332.5" width="115" height="50" as="geometry" />
        </mxCell>
        <mxCell id="3qrp_uGkJdftNhMHwffZ-19" value="&lt;span style=&quot;&quot;&gt;模型训练模块-&amp;gt;创建可视化建模&lt;/span&gt;" style="whiteSpace=wrap;html=1;dashed=1;" vertex="1" parent="1">
          <mxGeometry x="310" y="170" width="130" height="60" as="geometry" />
        </mxCell>
        <mxCell id="3qrp_uGkJdftNhMHwffZ-22" value="&lt;span style=&quot;&quot;&gt;数据管理模块-&amp;gt;创建数据同步任务-&amp;gt;数据同步配置-&amp;gt;ftp导入平台&lt;/span&gt;" style="whiteSpace=wrap;html=1;dashed=1;" vertex="1" parent="1">
          <mxGeometry x="300" y="303.75" width="140" height="62.5" as="geometry" />
        </mxCell>
        <mxCell id="3qrp_uGkJdftNhMHwffZ-25" value="&lt;span style=&quot;&quot;&gt;能力部署模块-&amp;gt;创建部署任务-&amp;gt;配置持久卷&lt;/span&gt;" style="whiteSpace=wrap;html=1;dashed=1;" vertex="1" parent="1">
          <mxGeometry x="520" y="175" width="132.5" height="60" as="geometry" />
        </mxCell>
        <mxCell id="3qrp_uGkJdftNhMHwffZ-27" value="部署任务列表-&amp;gt;持久卷管理-&amp;gt;数据信息-&amp;gt;数据同步-&amp;gt;平台导入ftp-&amp;gt;新增配置" style="whiteSpace=wrap;html=1;dashed=1;" vertex="1" parent="1">
          <mxGeometry x="490" y="318.75" width="162.5" height="77.5" as="geometry" />
        </mxCell>
        <mxCell id="3qrp_uGkJdftNhMHwffZ-33" style="edgeStyle=orthogonalEdgeStyle;rounded=0;orthogonalLoop=1;jettySize=auto;html=1;entryX=1;entryY=0.5;entryDx=0;entryDy=0;" edge="1" parent="1" source="3qrp_uGkJdftNhMHwffZ-29" target="3qrp_uGkJdftNhMHwffZ-30">
          <mxGeometry relative="1" as="geometry" />
        </mxCell>
        <mxCell id="3qrp_uGkJdftNhMHwffZ-29" value="推理数据定时导出到ftp" style="html=1;fillColor=#647687;fontColor=#ffffff;strokeColor=#314354;" vertex="1" parent="1">
          <mxGeometry x="712.5" y="440" width="150" height="50" as="geometry" />
        </mxCell>
        <mxCell id="3qrp_uGkJdftNhMHwffZ-31" style="edgeStyle=orthogonalEdgeStyle;rounded=0;orthogonalLoop=1;jettySize=auto;html=1;entryX=0.5;entryY=1;entryDx=0;entryDy=0;" edge="1" parent="1" source="3qrp_uGkJdftNhMHwffZ-30" target="3qrp_uGkJdftNhMHwffZ-11">
          <mxGeometry relative="1" as="geometry" />
        </mxCell>
        <mxCell id="3qrp_uGkJdftNhMHwffZ-30" value="ftp数据定时导入到学习平台" style="html=1;fillColor=#6d8764;fontColor=#ffffff;strokeColor=#3A5431;" vertex="1" parent="1">
          <mxGeometry x="90" y="440" width="150" height="50" as="geometry" />
        </mxCell>
        <mxCell id="3qrp_uGkJdftNhMHwffZ-40" style="edgeStyle=orthogonalEdgeStyle;rounded=0;orthogonalLoop=1;jettySize=auto;html=1;entryX=0.5;entryY=1;entryDx=0;entryDy=0;endArrow=classic;endFill=1;" edge="1" parent="1" source="3qrp_uGkJdftNhMHwffZ-37" target="3qrp_uGkJdftNhMHwffZ-39">
          <mxGeometry relative="1" as="geometry" />
        </mxCell>
        <mxCell id="3qrp_uGkJdftNhMHwffZ-37" value="创建定时训练任务" style="html=1;fillColor=#6d8764;fontColor=#ffffff;strokeColor=#3A5431;" vertex="1" parent="1">
          <mxGeometry x="110" y="60" width="110" height="50" as="geometry" />
        </mxCell>
        <mxCell id="3qrp_uGkJdftNhMHwffZ-44" style="edgeStyle=orthogonalEdgeStyle;rounded=0;orthogonalLoop=1;jettySize=auto;html=1;entryX=0.5;entryY=1;entryDx=0;entryDy=0;endArrow=classic;endFill=1;" edge="1" parent="1" source="3qrp_uGkJdftNhMHwffZ-39" target="3qrp_uGkJdftNhMHwffZ-43">
          <mxGeometry relative="1" as="geometry" />
        </mxCell>
        <mxCell id="3qrp_uGkJdftNhMHwffZ-50" style="edgeStyle=orthogonalEdgeStyle;rounded=0;orthogonalLoop=1;jettySize=auto;html=1;entryX=0;entryY=0.5;entryDx=0;entryDy=0;endArrow=classic;endFill=1;" edge="1" parent="1" source="3qrp_uGkJdftNhMHwffZ-39" target="3qrp_uGkJdftNhMHwffZ-49">
          <mxGeometry relative="1" as="geometry" />
        </mxCell>
        <mxCell id="3qrp_uGkJdftNhMHwffZ-39" value="创建数据同步任务" style="html=1;fillColor=#6d8764;fontColor=#ffffff;strokeColor=#3A5431;" vertex="1" parent="1">
          <mxGeometry x="102.5" y="-60" width="125" height="50" as="geometry" />
        </mxCell>
        <mxCell id="3qrp_uGkJdftNhMHwffZ-46" style="edgeStyle=orthogonalEdgeStyle;rounded=0;orthogonalLoop=1;jettySize=auto;html=1;entryX=0;entryY=0.5;entryDx=0;entryDy=0;endArrow=classic;endFill=1;" edge="1" parent="1" source="3qrp_uGkJdftNhMHwffZ-43" target="3qrp_uGkJdftNhMHwffZ-45">
          <mxGeometry relative="1" as="geometry" />
        </mxCell>
        <mxCell id="3qrp_uGkJdftNhMHwffZ-43" value="模型数据定时导出到ftp" style="html=1;fillColor=#6d8764;fontColor=#ffffff;strokeColor=#3A5431;" vertex="1" parent="1">
          <mxGeometry x="90" y="-160" width="150" height="50" as="geometry" />
        </mxCell>
        <mxCell id="3qrp_uGkJdftNhMHwffZ-48" style="edgeStyle=orthogonalEdgeStyle;rounded=0;orthogonalLoop=1;jettySize=auto;html=1;entryX=0.5;entryY=0;entryDx=0;entryDy=0;endArrow=classic;endFill=1;" edge="1" parent="1" source="3qrp_uGkJdftNhMHwffZ-45" target="3qrp_uGkJdftNhMHwffZ-47">
          <mxGeometry relative="1" as="geometry" />
        </mxCell>
        <mxCell id="3qrp_uGkJdftNhMHwffZ-45" value="ftp定时把模型数据导入到推理平台" style="html=1;fillColor=#647687;fontColor=#ffffff;strokeColor=#314354;" vertex="1" parent="1">
          <mxGeometry x="687.5" y="-160" width="200" height="50" as="geometry" />
        </mxCell>
        <mxCell id="3qrp_uGkJdftNhMHwffZ-52" style="edgeStyle=orthogonalEdgeStyle;rounded=0;orthogonalLoop=1;jettySize=auto;html=1;entryX=1;entryY=0.5;entryDx=0;entryDy=0;endArrow=classic;endFill=1;" edge="1" parent="1" source="3qrp_uGkJdftNhMHwffZ-47" target="3qrp_uGkJdftNhMHwffZ-51">
          <mxGeometry relative="1" as="geometry" />
        </mxCell>
        <mxCell id="3qrp_uGkJdftNhMHwffZ-55" style="edgeStyle=orthogonalEdgeStyle;rounded=0;orthogonalLoop=1;jettySize=auto;html=1;entryX=0.5;entryY=0;entryDx=0;entryDy=0;endArrow=classic;endFill=1;" edge="1" parent="1" source="3qrp_uGkJdftNhMHwffZ-47" target="3qrp_uGkJdftNhMHwffZ-54">
          <mxGeometry relative="1" as="geometry" />
        </mxCell>
        <mxCell id="3qrp_uGkJdftNhMHwffZ-47" value="创建数据同步任务" style="html=1;fillColor=#647687;fontColor=#ffffff;strokeColor=#314354;" vertex="1" parent="1">
          <mxGeometry x="725" y="-50" width="125" height="50" as="geometry" />
        </mxCell>
        <mxCell id="3qrp_uGkJdftNhMHwffZ-49" value="&lt;span style=&quot;&quot;&gt;数据管理模块-&amp;gt;创建数据同步任务-&amp;gt;数据同步配置-&amp;gt;平台导出ftp&lt;/span&gt;" style="whiteSpace=wrap;html=1;dashed=1;" vertex="1" parent="1">
          <mxGeometry x="280" y="-66.25" width="140" height="62.5" as="geometry" />
        </mxCell>
        <mxCell id="3qrp_uGkJdftNhMHwffZ-51" value="部署任务列表-&amp;gt;持久卷管理-&amp;gt;数据信息-&amp;gt;数据同步-&amp;gt;ftp导入平台-&amp;gt;新增配置" style="whiteSpace=wrap;html=1;dashed=1;" vertex="1" parent="1">
          <mxGeometry x="505" y="-63.75" width="162.5" height="77.5" as="geometry" />
        </mxCell>
        <mxCell id="3qrp_uGkJdftNhMHwffZ-56" style="edgeStyle=orthogonalEdgeStyle;rounded=0;orthogonalLoop=1;jettySize=auto;html=1;endArrow=classic;endFill=1;" edge="1" parent="1" source="3qrp_uGkJdftNhMHwffZ-54" target="3qrp_uGkJdftNhMHwffZ-14">
          <mxGeometry relative="1" as="geometry" />
        </mxCell>
        <mxCell id="3qrp_uGkJdftNhMHwffZ-54" value="持久卷管理" style="html=1;fillColor=#647687;fontColor=#ffffff;strokeColor=#314354;" vertex="1" parent="1">
          <mxGeometry x="732.5" y="60" width="110" height="50" as="geometry" />
        </mxCell>
        <mxCell id="3qrp_uGkJdftNhMHwffZ-60" value="模型同步流程" style="text;html=1;strokeColor=none;fillColor=none;align=center;verticalAlign=middle;whiteSpace=wrap;rounded=0;" vertex="1" parent="1">
          <mxGeometry x="430" y="-220" width="90" height="30" as="geometry" />
        </mxCell>
        <mxCell id="3qrp_uGkJdftNhMHwffZ-62" value="推理数据同步流程" style="text;html=1;strokeColor=none;fillColor=none;align=center;verticalAlign=middle;whiteSpace=wrap;rounded=0;" vertex="1" parent="1">
          <mxGeometry x="390" y="520" width="120" height="30" as="geometry" />
        </mxCell>
      </root>
    </mxGraphModel>
  </diagram>
</mxfile>
